<mxfile host="app.diagrams.net" modified="2022-06-03T14:22:39.903Z" agent="5.0 (Windows NT 10.0; Win64; x64) AppleWebKit/537.36 (KHTML, like Gecko) Chrome/101.0.4951.54 Safari/537.36" etag="7BRFHoNynfak2qJaWoBk" version="18.0.8" type="github">
  <diagram id="vqC2mFW4HvGlkNuLK0up" name="Page-1">
    <mxGraphModel dx="1038" dy="547" grid="1" gridSize="10" guides="1" tooltips="1" connect="1" arrows="1" fold="1" page="1" pageScale="1" pageWidth="1169" pageHeight="1654" math="0" shadow="0">
      <root>
        <mxCell id="0" />
        <mxCell id="1" parent="0" />
        <mxCell id="-LpXlav8uHPvm0gaR7sH-250" value="" style="html=1;" vertex="1" parent="1">
          <mxGeometry x="200" y="90" width="810" height="1850" as="geometry" />
        </mxCell>
        <mxCell id="-LpXlav8uHPvm0gaR7sH-4" value="" style="group" vertex="1" connectable="0" parent="1">
          <mxGeometry x="270" y="756" width="530" height="560" as="geometry" />
        </mxCell>
        <mxCell id="-LpXlav8uHPvm0gaR7sH-1" value="" style="shape=folder;fontStyle=1;spacingTop=10;tabWidth=60;tabHeight=20;tabPosition=left;html=1;" vertex="1" parent="-LpXlav8uHPvm0gaR7sH-4">
          <mxGeometry x="11.78" y="3.66" width="518.22" height="456.34" as="geometry" />
        </mxCell>
        <mxCell id="-LpXlav8uHPvm0gaR7sH-3" value="Intern" style="text;align=center;fontStyle=1;verticalAlign=middle;spacingLeft=3;spacingRight=3;strokeColor=none;rotatable=0;points=[[0,0.5],[1,0.5]];portConstraint=eastwest;" vertex="1" parent="-LpXlav8uHPvm0gaR7sH-4">
          <mxGeometry y="-9" width="94.22222222222223" height="47.62376237623763" as="geometry" />
        </mxCell>
        <mxCell id="-LpXlav8uHPvm0gaR7sH-16" value="" style="group" vertex="1" connectable="0" parent="-LpXlav8uHPvm0gaR7sH-4">
          <mxGeometry x="349.9988888888889" y="50.00222222222226" width="147.3517777777778" height="89.71" as="geometry" />
        </mxCell>
        <mxCell id="-LpXlav8uHPvm0gaR7sH-17" value="" style="shape=folder;fontStyle=1;spacingTop=10;tabWidth=80;tabHeight=30;tabPosition=left;html=1;" vertex="1" parent="-LpXlav8uHPvm0gaR7sH-16">
          <mxGeometry y="1" width="100" height="88.71" as="geometry" />
        </mxCell>
        <mxCell id="-LpXlav8uHPvm0gaR7sH-18" value="User Account" style="text;align=center;fontStyle=1;verticalAlign=middle;spacingLeft=3;spacingRight=3;strokeColor=none;rotatable=0;points=[[0,0.5],[1,0.5]];portConstraint=eastwest;" vertex="1" parent="-LpXlav8uHPvm0gaR7sH-16">
          <mxGeometry x="16.733333333333338" width="46.0628888888889" height="28.88888888888889" as="geometry" />
        </mxCell>
        <mxCell id="-LpXlav8uHPvm0gaR7sH-165" value="Manage account" style="ellipse;whiteSpace=wrap;html=1;" vertex="1" parent="-LpXlav8uHPvm0gaR7sH-16">
          <mxGeometry x="4.761111111111063" y="33.99777777777774" width="70" height="47" as="geometry" />
        </mxCell>
        <mxCell id="-LpXlav8uHPvm0gaR7sH-56" value="" style="group" vertex="1" connectable="0" parent="-LpXlav8uHPvm0gaR7sH-4">
          <mxGeometry x="179.9988888888889" y="50.00222222222226" width="147.3517777777778" height="150" as="geometry" />
        </mxCell>
        <mxCell id="-LpXlav8uHPvm0gaR7sH-57" value="" style="shape=folder;fontStyle=1;spacingTop=10;tabWidth=80;tabHeight=30;tabPosition=left;html=1;" vertex="1" parent="-LpXlav8uHPvm0gaR7sH-56">
          <mxGeometry y="1" width="147.35" height="149" as="geometry" />
        </mxCell>
        <mxCell id="-LpXlav8uHPvm0gaR7sH-58" value="Orders" style="text;align=center;fontStyle=1;verticalAlign=middle;spacingLeft=3;spacingRight=3;strokeColor=none;rotatable=0;points=[[0,0.5],[1,0.5]];portConstraint=eastwest;" vertex="1" parent="-LpXlav8uHPvm0gaR7sH-56">
          <mxGeometry x="15.733333333333338" width="46.0628888888889" height="28.88888888888889" as="geometry" />
        </mxCell>
        <mxCell id="-LpXlav8uHPvm0gaR7sH-162" value="track order" style="ellipse;whiteSpace=wrap;html=1;" vertex="1" parent="-LpXlav8uHPvm0gaR7sH-56">
          <mxGeometry x="2.7311111111110904" y="33.99777777777774" width="70" height="47" as="geometry" />
        </mxCell>
        <mxCell id="-LpXlav8uHPvm0gaR7sH-163" value="Consult archive orders" style="ellipse;whiteSpace=wrap;html=1;" vertex="1" parent="-LpXlav8uHPvm0gaR7sH-56">
          <mxGeometry x="3.761111111111063" y="93.99777777777774" width="70" height="47" as="geometry" />
        </mxCell>
        <mxCell id="-LpXlav8uHPvm0gaR7sH-164" value="Consult order page" style="ellipse;whiteSpace=wrap;html=1;" vertex="1" parent="-LpXlav8uHPvm0gaR7sH-56">
          <mxGeometry x="72.73111111111109" y="59.99777777777774" width="70" height="47" as="geometry" />
        </mxCell>
        <mxCell id="-LpXlav8uHPvm0gaR7sH-71" value="" style="group" vertex="1" connectable="0" parent="-LpXlav8uHPvm0gaR7sH-4">
          <mxGeometry x="20" y="50" width="147.35" height="180" as="geometry" />
        </mxCell>
        <mxCell id="-LpXlav8uHPvm0gaR7sH-72" value="" style="shape=folder;fontStyle=1;spacingTop=10;tabWidth=80;tabHeight=30;tabPosition=left;html=1;" vertex="1" parent="-LpXlav8uHPvm0gaR7sH-71">
          <mxGeometry y="2.002056058560497" width="147.35" height="177.99794394143953" as="geometry" />
        </mxCell>
        <mxCell id="-LpXlav8uHPvm0gaR7sH-73" value="Beers" style="text;align=center;fontStyle=1;verticalAlign=middle;spacingLeft=3;spacingRight=3;strokeColor=none;rotatable=0;points=[[0,0.5],[1,0.5]];portConstraint=eastwest;" vertex="1" parent="-LpXlav8uHPvm0gaR7sH-71">
          <mxGeometry x="16.73" width="46.06" height="30" as="geometry" />
        </mxCell>
        <mxCell id="-LpXlav8uHPvm0gaR7sH-182" value="Consult list beers created" style="ellipse;whiteSpace=wrap;html=1;" vertex="1" parent="-LpXlav8uHPvm0gaR7sH-71">
          <mxGeometry x="4.759999999999991" y="44" width="70" height="60" as="geometry" />
        </mxCell>
        <mxCell id="-LpXlav8uHPvm0gaR7sH-184" value="Create recipe" style="ellipse;whiteSpace=wrap;html=1;" vertex="1" parent="-LpXlav8uHPvm0gaR7sH-71">
          <mxGeometry x="10" y="114" width="70" height="47" as="geometry" />
        </mxCell>
        <mxCell id="-LpXlav8uHPvm0gaR7sH-183" value="Consult page beer created" style="ellipse;whiteSpace=wrap;html=1;" vertex="1" parent="-LpXlav8uHPvm0gaR7sH-71">
          <mxGeometry x="74.75999999999999" y="74" width="70" height="63" as="geometry" />
        </mxCell>
        <mxCell id="-LpXlav8uHPvm0gaR7sH-167" value="" style="group" vertex="1" connectable="0" parent="-LpXlav8uHPvm0gaR7sH-4">
          <mxGeometry x="32.65" y="237" width="147.35" height="153" as="geometry" />
        </mxCell>
        <mxCell id="-LpXlav8uHPvm0gaR7sH-168" value="" style="shape=folder;fontStyle=1;spacingTop=10;tabWidth=80;tabHeight=30;tabPosition=left;html=1;" vertex="1" parent="-LpXlav8uHPvm0gaR7sH-167">
          <mxGeometry y="0.765" width="99.99879351453737" height="152.235" as="geometry" />
        </mxCell>
        <mxCell id="-LpXlav8uHPvm0gaR7sH-169" value="Stages" style="text;align=center;fontStyle=1;verticalAlign=middle;spacingLeft=3;spacingRight=3;strokeColor=none;rotatable=0;points=[[0,0.5],[1,0.5]];portConstraint=eastwest;" vertex="1" parent="-LpXlav8uHPvm0gaR7sH-167">
          <mxGeometry x="16.733131448099257" y="5" width="46.06233314683079" height="22.1" as="geometry" />
        </mxCell>
        <mxCell id="-LpXlav8uHPvm0gaR7sH-170" value="Inscription" style="ellipse;whiteSpace=wrap;html=1;" vertex="1" parent="-LpXlav8uHPvm0gaR7sH-167">
          <mxGeometry x="15.001053668997649" y="58.51829999999997" width="69.99915546017615" height="35.955" as="geometry" />
        </mxCell>
        <mxCell id="-LpXlav8uHPvm0gaR7sH-171" value="" style="group" vertex="1" connectable="0" parent="-LpXlav8uHPvm0gaR7sH-4">
          <mxGeometry x="190" y="234" width="250" height="190" as="geometry" />
        </mxCell>
        <mxCell id="-LpXlav8uHPvm0gaR7sH-172" value="" style="shape=folder;fontStyle=1;spacingTop=10;tabWidth=130;tabHeight=29;tabPosition=left;html=1;" vertex="1" parent="-LpXlav8uHPvm0gaR7sH-171">
          <mxGeometry y="1.33" width="250" height="188.67" as="geometry" />
        </mxCell>
        <mxCell id="-LpXlav8uHPvm0gaR7sH-173" value="Exchange hops/bottles" style="text;align=center;fontStyle=1;verticalAlign=middle;spacingLeft=3;spacingRight=3;strokeColor=none;rotatable=0;points=[[0,0.5],[1,0.5]];portConstraint=eastwest;" vertex="1" parent="-LpXlav8uHPvm0gaR7sH-171">
          <mxGeometry x="42.73281776187897" width="46.06233314683079" height="38.64399222165799" as="geometry" />
        </mxCell>
        <mxCell id="-LpXlav8uHPvm0gaR7sH-174" value="Consult list hops" style="ellipse;whiteSpace=wrap;html=1;" vertex="1" parent="-LpXlav8uHPvm0gaR7sH-171">
          <mxGeometry x="1.9966425771735565" y="53.50409353827858" width="69.99915546017615" height="62.87080272985127" as="geometry" />
        </mxCell>
        <mxCell id="-LpXlav8uHPvm0gaR7sH-175" value="Consult page hop" style="ellipse;whiteSpace=wrap;html=1;" vertex="1" parent="-LpXlav8uHPvm0gaR7sH-171">
          <mxGeometry x="73.9957739076405" y="53.50409353827858" width="69.99915546017615" height="62.87080272985127" as="geometry" />
        </mxCell>
        <mxCell id="-LpXlav8uHPvm0gaR7sH-176" value="Consult list exchanges" style="ellipse;whiteSpace=wrap;html=1;" vertex="1" parent="-LpXlav8uHPvm0gaR7sH-171">
          <mxGeometry x="10" y="130" width="70" height="47" as="geometry" />
        </mxCell>
        <mxCell id="-LpXlav8uHPvm0gaR7sH-177" value="Consult page exchange" style="ellipse;whiteSpace=wrap;html=1;" vertex="1" parent="-LpXlav8uHPvm0gaR7sH-171">
          <mxGeometry x="90" y="130" width="80" height="47" as="geometry" />
        </mxCell>
        <mxCell id="-LpXlav8uHPvm0gaR7sH-178" value="Accept exchange" style="ellipse;whiteSpace=wrap;html=1;" vertex="1" parent="-LpXlav8uHPvm0gaR7sH-171">
          <mxGeometry x="159.99577390764034" y="53.50409353827854" width="69.99915546017615" height="62.87080272985127" as="geometry" />
        </mxCell>
        <mxCell id="-LpXlav8uHPvm0gaR7sH-179" value="Contact admin" style="ellipse;whiteSpace=wrap;html=1;" vertex="1" parent="-LpXlav8uHPvm0gaR7sH-171">
          <mxGeometry x="172.99577390764034" y="119.37409353827854" width="69.99915546017615" height="62.87080272985127" as="geometry" />
        </mxCell>
        <mxCell id="-LpXlav8uHPvm0gaR7sH-187" value="" style="group" vertex="1" connectable="0" parent="-LpXlav8uHPvm0gaR7sH-4">
          <mxGeometry x="339.9988888888889" y="147.29222222222222" width="180" height="89.71" as="geometry" />
        </mxCell>
        <mxCell id="-LpXlav8uHPvm0gaR7sH-188" value="" style="shape=folder;fontStyle=1;spacingTop=10;tabWidth=90;tabHeight=29;tabPosition=left;html=1;" vertex="1" parent="-LpXlav8uHPvm0gaR7sH-187">
          <mxGeometry y="1" width="180" height="88.71" as="geometry" />
        </mxCell>
        <mxCell id="-LpXlav8uHPvm0gaR7sH-189" value="Raw Materials" style="text;align=center;fontStyle=1;verticalAlign=middle;spacingLeft=3;spacingRight=3;strokeColor=none;rotatable=0;points=[[0,0.5],[1,0.5]];portConstraint=eastwest;" vertex="1" parent="-LpXlav8uHPvm0gaR7sH-187">
          <mxGeometry x="20.733333333333338" width="46.0628888888889" height="28.88888888888889" as="geometry" />
        </mxCell>
        <mxCell id="-LpXlav8uHPvm0gaR7sH-190" value="Consult list raw materials" style="ellipse;whiteSpace=wrap;html=1;" vertex="1" parent="-LpXlav8uHPvm0gaR7sH-187">
          <mxGeometry x="4.76" y="34" width="85.24" height="47" as="geometry" />
        </mxCell>
        <mxCell id="-LpXlav8uHPvm0gaR7sH-191" value="Consult page raw material" style="ellipse;whiteSpace=wrap;html=1;" vertex="1" parent="-LpXlav8uHPvm0gaR7sH-187">
          <mxGeometry x="100.00111111111107" y="33.99777777777774" width="70" height="47" as="geometry" />
        </mxCell>
        <mxCell id="-LpXlav8uHPvm0gaR7sH-6" value="" style="shape=folder;fontStyle=1;spacingTop=10;tabWidth=60;tabHeight=20;tabPosition=left;html=1;" vertex="1" parent="1">
          <mxGeometry x="281.78" y="273.03" width="688.22" height="466.97" as="geometry" />
        </mxCell>
        <mxCell id="-LpXlav8uHPvm0gaR7sH-119" value="" style="group" vertex="1" connectable="0" parent="1">
          <mxGeometry x="800" y="300" width="157.36" height="310" as="geometry" />
        </mxCell>
        <mxCell id="-LpXlav8uHPvm0gaR7sH-120" value="" style="shape=folder;fontStyle=1;spacingTop=10;tabWidth=130;tabHeight=26;tabPosition=left;html=1;" vertex="1" parent="-LpXlav8uHPvm0gaR7sH-119">
          <mxGeometry y="3.4479854341875225" width="147.35457803863304" height="306.5520145658125" as="geometry" />
        </mxCell>
        <mxCell id="-LpXlav8uHPvm0gaR7sH-121" value="Cart for raw materials" style="text;align=center;fontStyle=1;verticalAlign=middle;spacingLeft=3;spacingRight=3;strokeColor=none;rotatable=0;points=[[0,0.5],[1,0.5]];portConstraint=eastwest;" vertex="1" parent="-LpXlav8uHPvm0gaR7sH-119">
          <mxGeometry x="42.73055085595497" width="46.06143104485537" height="32.252470955436095" as="geometry" />
        </mxCell>
        <mxCell id="-LpXlav8uHPvm0gaR7sH-122" value="" style="group" vertex="1" connectable="0" parent="-LpXlav8uHPvm0gaR7sH-119">
          <mxGeometry x="10" y="42.3" width="147.36" height="87.7" as="geometry" />
        </mxCell>
        <mxCell id="-LpXlav8uHPvm0gaR7sH-123" value="" style="shape=folder;fontStyle=1;spacingTop=10;tabWidth=80;tabHeight=30;tabPosition=left;html=1;" vertex="1" parent="-LpXlav8uHPvm0gaR7sH-122">
          <mxGeometry y="0.9775944710734592" width="130.0072539938439" height="86.72240552892656" as="geometry" />
        </mxCell>
        <mxCell id="-LpXlav8uHPvm0gaR7sH-124" value="Gestion" style="text;align=center;fontStyle=1;verticalAlign=middle;spacingLeft=3;spacingRight=3;strokeColor=none;rotatable=0;points=[[0,0.5],[1,0.5]];portConstraint=eastwest;" vertex="1" parent="-LpXlav8uHPvm0gaR7sH-122">
          <mxGeometry x="16.734267052540936" width="46.06545919590761" height="28.241618053233264" as="geometry" />
        </mxCell>
        <mxCell id="-LpXlav8uHPvm0gaR7sH-125" value="Manage cart" style="ellipse;whiteSpace=wrap;html=1;" vertex="1" parent="-LpXlav8uHPvm0gaR7sH-122">
          <mxGeometry x="34.668601065025" y="37.10160641078039" width="70.00390599668518" height="45.946940140452575" as="geometry" />
        </mxCell>
        <mxCell id="-LpXlav8uHPvm0gaR7sH-126" value="" style="group" vertex="1" connectable="0" parent="-LpXlav8uHPvm0gaR7sH-119">
          <mxGeometry x="17.68" y="159.369499141007" width="120" height="123.43465045592706" as="geometry" />
        </mxCell>
        <mxCell id="-LpXlav8uHPvm0gaR7sH-127" value="" style="shape=folder;fontStyle=1;spacingTop=10;tabWidth=80;tabHeight=30;tabPosition=left;html=1;" vertex="1" parent="-LpXlav8uHPvm0gaR7sH-126">
          <mxGeometry y="1.3729060543421443" width="120" height="122.06174440158495" as="geometry" />
        </mxCell>
        <mxCell id="-LpXlav8uHPvm0gaR7sH-128" value="Validation" style="text;align=center;fontStyle=1;verticalAlign=middle;spacingLeft=3;spacingRight=3;strokeColor=none;rotatable=0;points=[[0,0.5],[1,0.5]];portConstraint=eastwest;" vertex="1" parent="-LpXlav8uHPvm0gaR7sH-126">
          <mxGeometry x="13.627253300114768" y="-8.228976697061803" width="37.512588921748865" height="39.750063934182656" as="geometry" />
        </mxCell>
        <mxCell id="-LpXlav8uHPvm0gaR7sH-130" value="Inform adress" style="ellipse;whiteSpace=wrap;html=1;" vertex="1" parent="-LpXlav8uHPvm0gaR7sH-126">
          <mxGeometry x="28.234815066168952" y="79.27089429666408" width="61.347811333559555" height="31.54049211173831" as="geometry" />
        </mxCell>
        <mxCell id="-LpXlav8uHPvm0gaR7sH-131" value="Validate CGV" style="ellipse;whiteSpace=wrap;html=1;" vertex="1" parent="-LpXlav8uHPvm0gaR7sH-126">
          <mxGeometry x="28.234815066168952" y="34.51997721937991" width="61.347811333559555" height="31.54049211173831" as="geometry" />
        </mxCell>
        <mxCell id="-LpXlav8uHPvm0gaR7sH-7" value="Admin" style="text;align=center;fontStyle=1;verticalAlign=middle;spacingLeft=3;spacingRight=3;strokeColor=none;rotatable=0;points=[[0,0.5],[1,0.5]];portConstraint=eastwest;" vertex="1" parent="1">
          <mxGeometry x="263" y="265.32824427480915" width="94.22222222222223" height="39.38613861386139" as="geometry" />
        </mxCell>
        <mxCell id="-LpXlav8uHPvm0gaR7sH-31" value="" style="group" vertex="1" connectable="0" parent="1">
          <mxGeometry x="305.33333333333337" y="300.00222222222226" width="147.3517777777778" height="89.70777777777775" as="geometry" />
        </mxCell>
        <mxCell id="-LpXlav8uHPvm0gaR7sH-32" value="" style="shape=folder;fontStyle=1;spacingTop=10;tabWidth=80;tabHeight=30;tabPosition=left;html=1;" vertex="1" parent="-LpXlav8uHPvm0gaR7sH-31">
          <mxGeometry y="0.9977777777777703" width="147.3517777777778" height="88.71" as="geometry" />
        </mxCell>
        <mxCell id="-LpXlav8uHPvm0gaR7sH-33" value="Dashboard" style="text;align=center;fontStyle=1;verticalAlign=middle;spacingLeft=3;spacingRight=3;strokeColor=none;rotatable=0;points=[[0,0.5],[1,0.5]];portConstraint=eastwest;" vertex="1" parent="-LpXlav8uHPvm0gaR7sH-31">
          <mxGeometry x="20.733333333333338" width="46.0628888888889" height="28.88888888888889" as="geometry" />
        </mxCell>
        <mxCell id="-LpXlav8uHPvm0gaR7sH-48" value="Consult Dashboard" style="ellipse;whiteSpace=wrap;html=1;" vertex="1" parent="-LpXlav8uHPvm0gaR7sH-31">
          <mxGeometry x="34.666666666666686" y="35.28777777777776" width="70" height="47" as="geometry" />
        </mxCell>
        <mxCell id="-LpXlav8uHPvm0gaR7sH-34" value="" style="group" vertex="1" connectable="0" parent="1">
          <mxGeometry x="482" y="640.0022222222223" width="300" height="89.71" as="geometry" />
        </mxCell>
        <mxCell id="-LpXlav8uHPvm0gaR7sH-35" value="" style="shape=folder;fontStyle=1;spacingTop=10;tabWidth=80;tabHeight=30;tabPosition=left;html=1;" vertex="1" parent="-LpXlav8uHPvm0gaR7sH-34">
          <mxGeometry y="1" width="300" height="88.71" as="geometry" />
        </mxCell>
        <mxCell id="-LpXlav8uHPvm0gaR7sH-36" value="Orders" style="text;align=center;fontStyle=1;verticalAlign=middle;spacingLeft=3;spacingRight=3;strokeColor=none;rotatable=0;points=[[0,0.5],[1,0.5]];portConstraint=eastwest;" vertex="1" parent="-LpXlav8uHPvm0gaR7sH-34">
          <mxGeometry x="24.733333333333338" width="46.0628888888889" height="28.88888888888889" as="geometry" />
        </mxCell>
        <mxCell id="-LpXlav8uHPvm0gaR7sH-50" value="Manage orders beers" style="ellipse;whiteSpace=wrap;html=1;" vertex="1" parent="-LpXlav8uHPvm0gaR7sH-34">
          <mxGeometry x="0.8000000000000611" y="35.28777777777776" width="70" height="47" as="geometry" />
        </mxCell>
        <mxCell id="-LpXlav8uHPvm0gaR7sH-112" value="Consult list orders raw materials" style="ellipse;whiteSpace=wrap;html=1;" vertex="1" parent="-LpXlav8uHPvm0gaR7sH-34">
          <mxGeometry x="73.35" y="35.29" width="86.65" height="47" as="geometry" />
        </mxCell>
        <mxCell id="-LpXlav8uHPvm0gaR7sH-227" value="Consult page order raw materials" style="ellipse;whiteSpace=wrap;html=1;" vertex="1" parent="-LpXlav8uHPvm0gaR7sH-34">
          <mxGeometry x="168" y="35.29" width="102" height="47" as="geometry" />
        </mxCell>
        <mxCell id="-LpXlav8uHPvm0gaR7sH-37" value="" style="group" vertex="1" connectable="0" parent="1">
          <mxGeometry x="305.33" y="410" width="154.67" height="89.71" as="geometry" />
        </mxCell>
        <mxCell id="-LpXlav8uHPvm0gaR7sH-38" value="" style="shape=folder;fontStyle=1;spacingTop=10;tabWidth=80;tabHeight=30;tabPosition=left;html=1;" vertex="1" parent="-LpXlav8uHPvm0gaR7sH-37">
          <mxGeometry y="0.997802494519234" width="151.94270629717693" height="88.71219750548075" as="geometry" />
        </mxCell>
        <mxCell id="-LpXlav8uHPvm0gaR7sH-39" value="Beers" style="text;align=center;fontStyle=1;verticalAlign=middle;spacingLeft=3;spacingRight=3;strokeColor=none;rotatable=0;points=[[0,0.5],[1,0.5]];portConstraint=eastwest;" vertex="1" parent="-LpXlav8uHPvm0gaR7sH-37">
          <mxGeometry x="17.25468121513811" width="47.498035674866834" height="28.889604518374473" as="geometry" />
        </mxCell>
        <mxCell id="-LpXlav8uHPvm0gaR7sH-78" value="Manage beer&#39;s types" style="ellipse;whiteSpace=wrap;html=1;" vertex="1" parent="-LpXlav8uHPvm0gaR7sH-37">
          <mxGeometry x="3.9965628125070065" y="36.708761410505716" width="82.49249983332959" height="50.00123858949428" as="geometry" />
        </mxCell>
        <mxCell id="-LpXlav8uHPvm0gaR7sH-51" value="Manage beers" style="ellipse;whiteSpace=wrap;html=1;" vertex="1" parent="-LpXlav8uHPvm0gaR7sH-37">
          <mxGeometry x="91.49" y="46.35" width="57.51" height="36.71" as="geometry" />
        </mxCell>
        <mxCell id="-LpXlav8uHPvm0gaR7sH-40" value="" style="group" vertex="1" connectable="0" parent="1">
          <mxGeometry x="482" y="390" width="147.35" height="109.71" as="geometry" />
        </mxCell>
        <mxCell id="-LpXlav8uHPvm0gaR7sH-41" value="" style="shape=folder;fontStyle=1;spacingTop=10;tabWidth=80;tabHeight=30;tabPosition=left;html=1;" vertex="1" parent="-LpXlav8uHPvm0gaR7sH-40">
          <mxGeometry y="-48.91762345334968" width="147.3482222436708" height="158.62762345334968" as="geometry" />
        </mxCell>
        <mxCell id="-LpXlav8uHPvm0gaR7sH-49" value="Manage visitors" style="ellipse;whiteSpace=wrap;html=1;" vertex="1" parent="-LpXlav8uHPvm0gaR7sH-40">
          <mxGeometry x="2.759966701001233" y="48.914905807602224" width="69.99915546017615" height="57.47820755768587" as="geometry" />
        </mxCell>
        <mxCell id="-LpXlav8uHPvm0gaR7sH-52" value="Manage interns" style="ellipse;whiteSpace=wrap;html=1;" vertex="1" parent="-LpXlav8uHPvm0gaR7sH-40">
          <mxGeometry x="75.34909091320392" y="48.914905807602224" width="69.99915546017615" height="57.47820755768587" as="geometry" />
        </mxCell>
        <mxCell id="-LpXlav8uHPvm0gaR7sH-42" value="Users" style="text;align=center;fontStyle=1;verticalAlign=middle;spacingLeft=3;spacingRight=3;strokeColor=none;rotatable=0;points=[[0,0.5],[1,0.5]];portConstraint=eastwest;" vertex="1" parent="-LpXlav8uHPvm0gaR7sH-40">
          <mxGeometry x="14.723333333333358" y="-48.91777777777776" width="46.0628888888889" height="28.88888888888889" as="geometry" />
        </mxCell>
        <mxCell id="-LpXlav8uHPvm0gaR7sH-229" value="Contact interns" style="ellipse;whiteSpace=wrap;html=1;" vertex="1" parent="-LpXlav8uHPvm0gaR7sH-40">
          <mxGeometry x="14.7199999999998" y="-10" width="70" height="47" as="geometry" />
        </mxCell>
        <mxCell id="-LpXlav8uHPvm0gaR7sH-28" value="" style="group" vertex="1" connectable="0" parent="1">
          <mxGeometry x="400" y="180.00222222222226" width="125.11000000000001" height="89.70777777777775" as="geometry" />
        </mxCell>
        <mxCell id="-LpXlav8uHPvm0gaR7sH-29" value="" style="shape=folder;fontStyle=1;spacingTop=10;tabWidth=100;tabHeight=29;tabPosition=left;html=1;" vertex="1" parent="-LpXlav8uHPvm0gaR7sH-28">
          <mxGeometry y="0.9977777777777703" width="125.11" height="88.71" as="geometry" />
        </mxCell>
        <mxCell id="-LpXlav8uHPvm0gaR7sH-30" value="Mailing System" style="text;align=center;fontStyle=1;verticalAlign=middle;spacingLeft=3;spacingRight=3;strokeColor=none;rotatable=0;points=[[0,0.5],[1,0.5]];portConstraint=eastwest;" vertex="1" parent="-LpXlav8uHPvm0gaR7sH-28">
          <mxGeometry x="28" width="39.11" height="28.88888888888889" as="geometry" />
        </mxCell>
        <mxCell id="-LpXlav8uHPvm0gaR7sH-46" value="Send a mail" style="ellipse;whiteSpace=wrap;html=1;" vertex="1" parent="-LpXlav8uHPvm0gaR7sH-28">
          <mxGeometry x="20" y="35.28777777777776" width="70" height="47" as="geometry" />
        </mxCell>
        <mxCell id="-LpXlav8uHPvm0gaR7sH-43" value="" style="group" vertex="1" connectable="0" parent="1">
          <mxGeometry x="710" y="140" width="125.11" height="150" as="geometry" />
        </mxCell>
        <mxCell id="-LpXlav8uHPvm0gaR7sH-44" value="" style="shape=folder;fontStyle=1;spacingTop=10;tabWidth=100;tabHeight=29;tabPosition=left;html=1;" vertex="1" parent="-LpXlav8uHPvm0gaR7sH-43">
          <mxGeometry y="1.3636363636363635" width="125.10999999999999" height="148.63636363636363" as="geometry" />
        </mxCell>
        <mxCell id="-LpXlav8uHPvm0gaR7sH-45" value="Payment System" style="text;align=center;fontStyle=1;verticalAlign=middle;spacingLeft=3;spacingRight=3;strokeColor=none;rotatable=0;points=[[0,0.5],[1,0.5]];portConstraint=eastwest;" vertex="1" parent="-LpXlav8uHPvm0gaR7sH-43">
          <mxGeometry x="30.559999999999995" width="39.10999999999999" height="39.39393939393939" as="geometry" />
        </mxCell>
        <mxCell id="-LpXlav8uHPvm0gaR7sH-47" value="Validate cart admin" style="ellipse;whiteSpace=wrap;html=1;" vertex="1" parent="-LpXlav8uHPvm0gaR7sH-43">
          <mxGeometry x="28.56" y="39.39" width="72.44" height="45.46" as="geometry" />
        </mxCell>
        <mxCell id="-LpXlav8uHPvm0gaR7sH-243" value="Validate cart visitor" style="ellipse;whiteSpace=wrap;html=1;" vertex="1" parent="-LpXlav8uHPvm0gaR7sH-43">
          <mxGeometry x="27.559999999999945" y="90" width="72.44" height="45.46" as="geometry" />
        </mxCell>
        <mxCell id="-LpXlav8uHPvm0gaR7sH-53" value="" style="group" vertex="1" connectable="0" parent="1">
          <mxGeometry x="252" y="1118" width="996.3551111111111" height="758.0024474990455" as="geometry" />
        </mxCell>
        <mxCell id="-LpXlav8uHPvm0gaR7sH-54" value="" style="shape=folder;fontStyle=1;spacingTop=10;tabWidth=60;tabHeight=20;tabPosition=left;html=1;" vertex="1" parent="-LpXlav8uHPvm0gaR7sH-53">
          <mxGeometry x="28.45777777777778" y="117.46752475247536" width="518.2222222222223" height="624.7524752475247" as="geometry" />
        </mxCell>
        <mxCell id="-LpXlav8uHPvm0gaR7sH-55" value="Visitors" style="text;align=center;fontStyle=1;verticalAlign=middle;spacingLeft=3;spacingRight=3;strokeColor=none;rotatable=0;points=[[0,0.5],[1,0.5]];portConstraint=eastwest;" vertex="1" parent="-LpXlav8uHPvm0gaR7sH-53">
          <mxGeometry x="8.68" y="88.00135135135136" width="94.22222222222223" height="81.21782178217822" as="geometry" />
        </mxCell>
        <mxCell id="-LpXlav8uHPvm0gaR7sH-101" value="" style="group" vertex="1" connectable="0" parent="-LpXlav8uHPvm0gaR7sH-53">
          <mxGeometry x="376.03999999999996" y="169.22257731958757" width="147.35" height="218.29130584192438" as="geometry" />
        </mxCell>
        <mxCell id="-LpXlav8uHPvm0gaR7sH-102" value="" style="shape=folder;fontStyle=1;spacingTop=10;tabWidth=99;tabHeight=32;tabPosition=left;html=1;" vertex="1" parent="-LpXlav8uHPvm0gaR7sH-101">
          <mxGeometry x="-1" y="2.43" width="147.35" height="97.57" as="geometry" />
        </mxCell>
        <mxCell id="-LpXlav8uHPvm0gaR7sH-103" value="Login/Registrery" style="text;align=center;fontStyle=1;verticalAlign=middle;spacingLeft=3;spacingRight=3;strokeColor=none;rotatable=0;points=[[0,0.5],[1,0.5]];portConstraint=eastwest;" vertex="1" parent="-LpXlav8uHPvm0gaR7sH-101">
          <mxGeometry x="28.73" y="3" width="46.06" height="25" as="geometry" />
        </mxCell>
        <mxCell id="-LpXlav8uHPvm0gaR7sH-237" style="edgeStyle=orthogonalEdgeStyle;rounded=0;orthogonalLoop=1;jettySize=auto;html=1;exitX=0.5;exitY=0;exitDx=0;exitDy=0;entryX=0.405;entryY=0.003;entryDx=0;entryDy=0;entryPerimeter=0;dashed=1;endArrow=classic;endFill=1;startArrow=none;" edge="1" parent="-LpXlav8uHPvm0gaR7sH-101" source="-LpXlav8uHPvm0gaR7sH-238" target="-LpXlav8uHPvm0gaR7sH-140">
          <mxGeometry relative="1" as="geometry" />
        </mxCell>
        <mxCell id="-LpXlav8uHPvm0gaR7sH-139" value="Login" style="ellipse;whiteSpace=wrap;html=1;" vertex="1" parent="-LpXlav8uHPvm0gaR7sH-101">
          <mxGeometry x="2.79" y="51.65" width="47.21" height="38.64" as="geometry" />
        </mxCell>
        <mxCell id="-LpXlav8uHPvm0gaR7sH-140" value="Inscription" style="ellipse;whiteSpace=wrap;html=1;" vertex="1" parent="-LpXlav8uHPvm0gaR7sH-101">
          <mxGeometry x="68.7933333333333" y="51.64987017945782" width="70" height="38.64" as="geometry" />
        </mxCell>
        <mxCell id="-LpXlav8uHPvm0gaR7sH-238" value="Extends" style="text;html=1;align=center;verticalAlign=middle;resizable=0;points=[];autosize=1;strokeColor=none;fillColor=none;" vertex="1" parent="-LpXlav8uHPvm0gaR7sH-101">
          <mxGeometry x="46.63000000000011" y="19.997422680412456" width="60" height="20" as="geometry" />
        </mxCell>
        <mxCell id="-LpXlav8uHPvm0gaR7sH-239" value="" style="edgeStyle=orthogonalEdgeStyle;rounded=0;orthogonalLoop=1;jettySize=auto;html=1;exitX=0.5;exitY=0;exitDx=0;exitDy=0;entryX=0.405;entryY=0.003;entryDx=0;entryDy=0;entryPerimeter=0;dashed=1;endArrow=none;endFill=1;" edge="1" parent="-LpXlav8uHPvm0gaR7sH-101" source="-LpXlav8uHPvm0gaR7sH-139" target="-LpXlav8uHPvm0gaR7sH-238">
          <mxGeometry relative="1" as="geometry">
            <mxPoint x="654.435" y="1198.8725773195877" as="sourcePoint" />
            <mxPoint x="725.1833333333332" y="1198.9883674990454" as="targetPoint" />
          </mxGeometry>
        </mxCell>
        <mxCell id="-LpXlav8uHPvm0gaR7sH-65" value="" style="group" vertex="1" connectable="0" parent="-LpXlav8uHPvm0gaR7sH-53">
          <mxGeometry x="375.67999999999995" y="279.22" width="157.36" height="378.35" as="geometry" />
        </mxCell>
        <mxCell id="-LpXlav8uHPvm0gaR7sH-66" value="" style="shape=folder;fontStyle=1;spacingTop=10;tabWidth=80;tabHeight=30;tabPosition=left;html=1;" vertex="1" parent="-LpXlav8uHPvm0gaR7sH-65">
          <mxGeometry y="4.208210609757578" width="147.35457803863304" height="374.1417893902425" as="geometry" />
        </mxCell>
        <mxCell id="-LpXlav8uHPvm0gaR7sH-67" value="Cart" style="text;align=center;fontStyle=1;verticalAlign=middle;spacingLeft=3;spacingRight=3;strokeColor=none;rotatable=0;points=[[0,0.5],[1,0.5]];portConstraint=eastwest;" vertex="1" parent="-LpXlav8uHPvm0gaR7sH-65">
          <mxGeometry x="17.730550855954966" width="46.06143104485537" height="39.363620599965316" as="geometry" />
        </mxCell>
        <mxCell id="-LpXlav8uHPvm0gaR7sH-88" value="" style="group" vertex="1" connectable="0" parent="-LpXlav8uHPvm0gaR7sH-65">
          <mxGeometry x="10" y="51.63" width="147.36" height="88.37" as="geometry" />
        </mxCell>
        <mxCell id="-LpXlav8uHPvm0gaR7sH-89" value="" style="shape=folder;fontStyle=1;spacingTop=10;tabWidth=80;tabHeight=30;tabPosition=left;html=1;" vertex="1" parent="-LpXlav8uHPvm0gaR7sH-88">
          <mxGeometry y="0.9850629807156395" width="130.0072539938439" height="87.38493701928437" as="geometry" />
        </mxCell>
        <mxCell id="-LpXlav8uHPvm0gaR7sH-90" value="Gestion" style="text;align=center;fontStyle=1;verticalAlign=middle;spacingLeft=3;spacingRight=3;strokeColor=none;rotatable=0;points=[[0,0.5],[1,0.5]];portConstraint=eastwest;" vertex="1" parent="-LpXlav8uHPvm0gaR7sH-88">
          <mxGeometry x="16.734267052540936" width="46.06545919590761" height="28.457374998451805" as="geometry" />
        </mxCell>
        <mxCell id="-LpXlav8uHPvm0gaR7sH-91" value="Manage cart" style="ellipse;whiteSpace=wrap;html=1;" vertex="1" parent="-LpXlav8uHPvm0gaR7sH-88">
          <mxGeometry x="34.668601065025" y="39.40033019977951" width="70.00390599668518" height="46.29796009363505" as="geometry" />
        </mxCell>
        <mxCell id="-LpXlav8uHPvm0gaR7sH-92" value="" style="group" vertex="1" connectable="0" parent="-LpXlav8uHPvm0gaR7sH-65">
          <mxGeometry x="23.67999999999995" y="149.3499999999999" width="120" height="210" as="geometry" />
        </mxCell>
        <mxCell id="-LpXlav8uHPvm0gaR7sH-93" value="" style="shape=folder;fontStyle=1;spacingTop=10;tabWidth=80;tabHeight=30;tabPosition=left;html=1;" vertex="1" parent="-LpXlav8uHPvm0gaR7sH-92">
          <mxGeometry y="2.3357320683205796" width="120" height="207.66426793167946" as="geometry" />
        </mxCell>
        <mxCell id="-LpXlav8uHPvm0gaR7sH-94" value="Validation" style="text;align=center;fontStyle=1;verticalAlign=middle;spacingLeft=3;spacingRight=3;strokeColor=none;rotatable=0;points=[[0,0.5],[1,0.5]];portConstraint=eastwest;" vertex="1" parent="-LpXlav8uHPvm0gaR7sH-92">
          <mxGeometry x="13.627253300114768" y="-14" width="37.512588921748865" height="67.62698638790148" as="geometry" />
        </mxCell>
        <mxCell id="-LpXlav8uHPvm0gaR7sH-95" value="Inform payment" style="ellipse;whiteSpace=wrap;html=1;" vertex="1" parent="-LpXlav8uHPvm0gaR7sH-92">
          <mxGeometry x="28.234815066168988" y="150" width="61.347811333559555" height="53.66" as="geometry" />
        </mxCell>
        <mxCell id="-LpXlav8uHPvm0gaR7sH-96" value="Inform adress" style="ellipse;whiteSpace=wrap;html=1;" vertex="1" parent="-LpXlav8uHPvm0gaR7sH-92">
          <mxGeometry x="28.234815066168952" y="93" width="61.347811333559555" height="53.66" as="geometry" />
        </mxCell>
        <mxCell id="-LpXlav8uHPvm0gaR7sH-97" value="Validate CGV" style="ellipse;whiteSpace=wrap;html=1;" vertex="1" parent="-LpXlav8uHPvm0gaR7sH-92">
          <mxGeometry x="28.234815066168952" y="36.34000000000003" width="61.347811333559555" height="53.66" as="geometry" />
        </mxCell>
        <mxCell id="-LpXlav8uHPvm0gaR7sH-68" value="" style="group" vertex="1" connectable="0" parent="-LpXlav8uHPvm0gaR7sH-53">
          <mxGeometry x="75.68" y="169.22000000000003" width="147.35" height="370" as="geometry" />
        </mxCell>
        <mxCell id="-LpXlav8uHPvm0gaR7sH-69" value="" style="shape=folder;fontStyle=1;spacingTop=10;tabWidth=80;tabHeight=30;tabPosition=left;html=1;" vertex="1" parent="-LpXlav8uHPvm0gaR7sH-68">
          <mxGeometry y="2.78" width="120" height="307.22" as="geometry" />
        </mxCell>
        <mxCell id="-LpXlav8uHPvm0gaR7sH-70" value="Beers" style="text;align=center;fontStyle=1;verticalAlign=middle;spacingLeft=3;spacingRight=3;strokeColor=none;rotatable=0;points=[[0,0.5],[1,0.5]];portConstraint=eastwest;" vertex="1" parent="-LpXlav8uHPvm0gaR7sH-68">
          <mxGeometry x="16.73" y="3.43448275862069" width="46.06" height="28.620689655172416" as="geometry" />
        </mxCell>
        <mxCell id="-LpXlav8uHPvm0gaR7sH-143" value="Consult beer&#39;s type page" style="ellipse;whiteSpace=wrap;html=1;" vertex="1" parent="-LpXlav8uHPvm0gaR7sH-68">
          <mxGeometry x="4.759999999999998" y="45.793103448275865" width="70" height="57.24137931034483" as="geometry" />
        </mxCell>
        <mxCell id="-LpXlav8uHPvm0gaR7sH-141" value="Consult beer page" style="ellipse;whiteSpace=wrap;html=1;" vertex="1" parent="-LpXlav8uHPvm0gaR7sH-68">
          <mxGeometry x="4.763333333333321" y="115.26109275717263" width="70" height="44.236137931034484" as="geometry" />
        </mxCell>
        <mxCell id="-LpXlav8uHPvm0gaR7sH-142" value="Consult beers list" style="ellipse;whiteSpace=wrap;html=1;" vertex="1" parent="-LpXlav8uHPvm0gaR7sH-68">
          <mxGeometry x="4.763333333333321" y="171.7239893088967" width="70" height="44.236137931034484" as="geometry" />
        </mxCell>
        <mxCell id="-LpXlav8uHPvm0gaR7sH-144" value="Consult beer&#39;s types list" style="ellipse;whiteSpace=wrap;html=1;" vertex="1" parent="-LpXlav8uHPvm0gaR7sH-68">
          <mxGeometry x="4.759999999999991" y="228.96256665481704" width="70" height="64.84303448275863" as="geometry" />
        </mxCell>
        <mxCell id="-LpXlav8uHPvm0gaR7sH-84" value="" style="group" vertex="1" connectable="0" parent="-LpXlav8uHPvm0gaR7sH-53">
          <mxGeometry x="245.68333333333328" y="159.22244749904553" width="147.3517777777778" height="206.7499999999999" as="geometry" />
        </mxCell>
        <mxCell id="-LpXlav8uHPvm0gaR7sH-85" value="" style="shape=folder;fontStyle=1;spacingTop=10;tabWidth=80;tabHeight=30;tabPosition=left;html=1;" vertex="1" parent="-LpXlav8uHPvm0gaR7sH-84">
          <mxGeometry y="3.16" width="90" height="136.84" as="geometry" />
        </mxCell>
        <mxCell id="-LpXlav8uHPvm0gaR7sH-86" value="Stages" style="text;align=center;fontStyle=1;verticalAlign=middle;spacingLeft=3;spacingRight=3;strokeColor=none;rotatable=0;points=[[0,0.5],[1,0.5]];portConstraint=eastwest;" vertex="1" parent="-LpXlav8uHPvm0gaR7sH-84">
          <mxGeometry x="16.73" width="46.06" height="30" as="geometry" />
        </mxCell>
        <mxCell id="-LpXlav8uHPvm0gaR7sH-87" value="Consult list stages" style="ellipse;whiteSpace=wrap;html=1;" vertex="1" parent="-LpXlav8uHPvm0gaR7sH-84">
          <mxGeometry x="10" y="40.41" width="70" height="38.64" as="geometry" />
        </mxCell>
        <mxCell id="-LpXlav8uHPvm0gaR7sH-153" value="Consult page stage" style="ellipse;whiteSpace=wrap;html=1;" vertex="1" parent="-LpXlav8uHPvm0gaR7sH-84">
          <mxGeometry x="10" y="90" width="70" height="38.64" as="geometry" />
        </mxCell>
        <mxCell id="-LpXlav8uHPvm0gaR7sH-154" value="" style="group" vertex="1" connectable="0" parent="-LpXlav8uHPvm0gaR7sH-53">
          <mxGeometry x="235.68333333333334" y="309.22244749904553" width="147.3517777777778" height="220" as="geometry" />
        </mxCell>
        <mxCell id="-LpXlav8uHPvm0gaR7sH-155" value="" style="shape=folder;fontStyle=1;spacingTop=10;tabWidth=80;tabHeight=30;tabPosition=left;html=1;" vertex="1" parent="-LpXlav8uHPvm0gaR7sH-154">
          <mxGeometry y="3.16" width="90" height="176.84" as="geometry" />
        </mxCell>
        <mxCell id="-LpXlav8uHPvm0gaR7sH-156" value="exchanges" style="text;align=center;fontStyle=1;verticalAlign=middle;spacingLeft=3;spacingRight=3;strokeColor=none;rotatable=0;points=[[0,0.5],[1,0.5]];portConstraint=eastwest;" vertex="1" parent="-LpXlav8uHPvm0gaR7sH-154">
          <mxGeometry x="16.73" width="46.06" height="30" as="geometry" />
        </mxCell>
        <mxCell id="-LpXlav8uHPvm0gaR7sH-157" value="Consult conditions for exchange" style="ellipse;whiteSpace=wrap;html=1;" vertex="1" parent="-LpXlav8uHPvm0gaR7sH-154">
          <mxGeometry x="10" y="40.41" width="70" height="79.59" as="geometry" />
        </mxCell>
        <mxCell id="-LpXlav8uHPvm0gaR7sH-158" value="Consult page stage" style="ellipse;whiteSpace=wrap;html=1;" vertex="1" parent="-LpXlav8uHPvm0gaR7sH-154">
          <mxGeometry x="10" y="130" width="70" height="38.64" as="geometry" />
        </mxCell>
        <mxCell id="-LpXlav8uHPvm0gaR7sH-149" value="" style="shape=folder;fontStyle=1;spacingTop=10;tabWidth=80;tabHeight=30;tabPosition=left;html=1;" vertex="1" parent="-LpXlav8uHPvm0gaR7sH-53">
          <mxGeometry x="175.68333333333334" y="543.3824474990456" width="190" height="187.84" as="geometry" />
        </mxCell>
        <mxCell id="-LpXlav8uHPvm0gaR7sH-150" value="Informations" style="text;align=center;fontStyle=1;verticalAlign=middle;spacingLeft=3;spacingRight=3;strokeColor=none;rotatable=0;points=[[0,0.5],[1,0.5]];portConstraint=eastwest;" vertex="1" parent="-LpXlav8uHPvm0gaR7sH-53">
          <mxGeometry x="192.41333333333336" y="541.2224474990455" width="46.06" height="30" as="geometry" />
        </mxCell>
        <mxCell id="-LpXlav8uHPvm0gaR7sH-159" value="Consult informations brewery" style="ellipse;whiteSpace=wrap;html=1;" vertex="1" parent="-LpXlav8uHPvm0gaR7sH-53">
          <mxGeometry x="205.68333333333334" y="591.2224474990455" width="70" height="60" as="geometry" />
        </mxCell>
        <mxCell id="-LpXlav8uHPvm0gaR7sH-160" value="Consult list services" style="ellipse;whiteSpace=wrap;html=1;" vertex="1" parent="-LpXlav8uHPvm0gaR7sH-53">
          <mxGeometry x="205.68333333333334" y="661.2224474990455" width="70" height="60" as="geometry" />
        </mxCell>
        <mxCell id="-LpXlav8uHPvm0gaR7sH-161" value="Contact admin" style="ellipse;whiteSpace=wrap;html=1;" vertex="1" parent="-LpXlav8uHPvm0gaR7sH-53">
          <mxGeometry x="285.6833333333333" y="591.2224474990455" width="70" height="60" as="geometry" />
        </mxCell>
        <mxCell id="-LpXlav8uHPvm0gaR7sH-181" value="Contact admin" style="ellipse;whiteSpace=wrap;html=1;" vertex="1" parent="-LpXlav8uHPvm0gaR7sH-53">
          <mxGeometry x="65.64981902718058" y="-18.005000000000003" width="69.99915546017615" height="37.38555" as="geometry" />
        </mxCell>
        <mxCell id="-LpXlav8uHPvm0gaR7sH-75" value="" style="group" vertex="1" connectable="0" parent="1">
          <mxGeometry x="305.33333333333337" y="530.0022222222223" width="147.35666666666646" height="89.70777777777775" as="geometry" />
        </mxCell>
        <mxCell id="-LpXlav8uHPvm0gaR7sH-76" value="" style="shape=folder;fontStyle=1;spacingTop=10;tabWidth=80;tabHeight=30;tabPosition=left;html=1;" vertex="1" parent="-LpXlav8uHPvm0gaR7sH-75">
          <mxGeometry y="0.9977777777777703" width="147.3517777777778" height="88.71" as="geometry" />
        </mxCell>
        <mxCell id="-LpXlav8uHPvm0gaR7sH-77" value="Messages" style="text;align=center;fontStyle=1;verticalAlign=middle;spacingLeft=3;spacingRight=3;strokeColor=none;rotatable=0;points=[[0,0.5],[1,0.5]];portConstraint=eastwest;" vertex="1" parent="-LpXlav8uHPvm0gaR7sH-75">
          <mxGeometry x="16.733333333333338" width="46.0628888888889" height="28.88888888888889" as="geometry" />
        </mxCell>
        <mxCell id="-LpXlav8uHPvm0gaR7sH-74" value="Manage messages" style="ellipse;whiteSpace=wrap;html=1;" vertex="1" parent="-LpXlav8uHPvm0gaR7sH-75">
          <mxGeometry x="2.76666666666663" y="39.99777777777774" width="70" height="47" as="geometry" />
        </mxCell>
        <mxCell id="-LpXlav8uHPvm0gaR7sH-138" value="Send an answer" style="ellipse;whiteSpace=wrap;html=1;" vertex="1" parent="-LpXlav8uHPvm0gaR7sH-75">
          <mxGeometry x="76.35666666666646" y="39.99777777777774" width="70" height="47" as="geometry" />
        </mxCell>
        <mxCell id="-LpXlav8uHPvm0gaR7sH-80" value="" style="group" vertex="1" connectable="0" parent="1">
          <mxGeometry x="480.00333333333333" y="530.0022222222223" width="147.3517777777778" height="89.70777777777775" as="geometry" />
        </mxCell>
        <mxCell id="-LpXlav8uHPvm0gaR7sH-81" value="" style="shape=folder;fontStyle=1;spacingTop=10;tabWidth=80;tabHeight=30;tabPosition=left;html=1;" vertex="1" parent="-LpXlav8uHPvm0gaR7sH-80">
          <mxGeometry y="0.9977777777777703" width="147.3517777777778" height="88.71" as="geometry" />
        </mxCell>
        <mxCell id="-LpXlav8uHPvm0gaR7sH-82" value="Stages" style="text;align=center;fontStyle=1;verticalAlign=middle;spacingLeft=3;spacingRight=3;strokeColor=none;rotatable=0;points=[[0,0.5],[1,0.5]];portConstraint=eastwest;" vertex="1" parent="-LpXlav8uHPvm0gaR7sH-80">
          <mxGeometry x="16.733333333333338" width="46.0628888888889" height="28.88888888888889" as="geometry" />
        </mxCell>
        <mxCell id="-LpXlav8uHPvm0gaR7sH-83" value="Manage stages" style="ellipse;whiteSpace=wrap;html=1;" vertex="1" parent="-LpXlav8uHPvm0gaR7sH-80">
          <mxGeometry x="34.66666666666663" y="39.99777777777774" width="70" height="47" as="geometry" />
        </mxCell>
        <mxCell id="-LpXlav8uHPvm0gaR7sH-104" value="" style="group" vertex="1" connectable="0" parent="1">
          <mxGeometry x="632.5533333333333" y="530.0022222222223" width="160" height="89.71" as="geometry" />
        </mxCell>
        <mxCell id="-LpXlav8uHPvm0gaR7sH-105" value="" style="shape=folder;fontStyle=1;spacingTop=10;tabWidth=80;tabHeight=30;tabPosition=left;html=1;" vertex="1" parent="-LpXlav8uHPvm0gaR7sH-104">
          <mxGeometry y="1" width="160" height="88.71" as="geometry" />
        </mxCell>
        <mxCell id="-LpXlav8uHPvm0gaR7sH-106" value="Vendors" style="text;align=center;fontStyle=1;verticalAlign=middle;spacingLeft=3;spacingRight=3;strokeColor=none;rotatable=0;points=[[0,0.5],[1,0.5]];portConstraint=eastwest;" vertex="1" parent="-LpXlav8uHPvm0gaR7sH-104">
          <mxGeometry x="16.733333333333338" width="46.0628888888889" height="28.88888888888889" as="geometry" />
        </mxCell>
        <mxCell id="-LpXlav8uHPvm0gaR7sH-107" value="Manage vendors" style="ellipse;whiteSpace=wrap;html=1;" vertex="1" parent="-LpXlav8uHPvm0gaR7sH-104">
          <mxGeometry x="10" y="42.71" width="64.77" height="37.29" as="geometry" />
        </mxCell>
        <mxCell id="-LpXlav8uHPvm0gaR7sH-79" value="Contact vendors" style="ellipse;whiteSpace=wrap;html=1;" vertex="1" parent="-LpXlav8uHPvm0gaR7sH-104">
          <mxGeometry x="77.35666666666657" y="32.99777777777774" width="70" height="47" as="geometry" />
        </mxCell>
        <mxCell id="-LpXlav8uHPvm0gaR7sH-108" value="" style="group" vertex="1" connectable="0" parent="1">
          <mxGeometry x="640.0033333333333" y="420.00222222222226" width="147.3517777777778" height="89.70777777777775" as="geometry" />
        </mxCell>
        <mxCell id="-LpXlav8uHPvm0gaR7sH-109" value="" style="shape=folder;fontStyle=1;spacingTop=10;tabWidth=80;tabHeight=30;tabPosition=left;html=1;" vertex="1" parent="-LpXlav8uHPvm0gaR7sH-108">
          <mxGeometry y="0.9977777777777703" width="147.3517777777778" height="88.71" as="geometry" />
        </mxCell>
        <mxCell id="-LpXlav8uHPvm0gaR7sH-110" value="Tanks" style="text;align=center;fontStyle=1;verticalAlign=middle;spacingLeft=3;spacingRight=3;strokeColor=none;rotatable=0;points=[[0,0.5],[1,0.5]];portConstraint=eastwest;" vertex="1" parent="-LpXlav8uHPvm0gaR7sH-108">
          <mxGeometry x="16.733333333333338" width="46.0628888888889" height="28.88888888888889" as="geometry" />
        </mxCell>
        <mxCell id="-LpXlav8uHPvm0gaR7sH-111" value="Manage tanks" style="ellipse;whiteSpace=wrap;html=1;" vertex="1" parent="-LpXlav8uHPvm0gaR7sH-108">
          <mxGeometry x="34.66666666666663" y="39.99777777777774" width="70" height="47" as="geometry" />
        </mxCell>
        <mxCell id="-LpXlav8uHPvm0gaR7sH-113" value="" style="group" vertex="1" connectable="0" parent="1">
          <mxGeometry x="640.0033333333333" y="310.00222222222226" width="147.3517777777778" height="89.70777777777775" as="geometry" />
        </mxCell>
        <mxCell id="-LpXlav8uHPvm0gaR7sH-114" value="" style="shape=folder;fontStyle=1;spacingTop=10;tabWidth=130;tabHeight=29;tabPosition=left;html=1;" vertex="1" parent="-LpXlav8uHPvm0gaR7sH-113">
          <mxGeometry y="0.9977777777777703" width="147.3517777777778" height="88.71" as="geometry" />
        </mxCell>
        <mxCell id="-LpXlav8uHPvm0gaR7sH-115" value="Exchange hops/bottle" style="text;align=center;fontStyle=1;verticalAlign=middle;spacingLeft=3;spacingRight=3;strokeColor=none;rotatable=0;points=[[0,0.5],[1,0.5]];portConstraint=eastwest;" vertex="1" parent="-LpXlav8uHPvm0gaR7sH-113">
          <mxGeometry x="42.733333333333334" width="46.0628888888889" height="28.88888888888889" as="geometry" />
        </mxCell>
        <mxCell id="-LpXlav8uHPvm0gaR7sH-116" value="Manage exchange" style="ellipse;whiteSpace=wrap;html=1;" vertex="1" parent="-LpXlav8uHPvm0gaR7sH-113">
          <mxGeometry x="1.996666666666627" y="39.99777777777774" width="70" height="47" as="geometry" />
        </mxCell>
        <mxCell id="-LpXlav8uHPvm0gaR7sH-117" value="Contact users" style="ellipse;whiteSpace=wrap;html=1;" vertex="1" parent="-LpXlav8uHPvm0gaR7sH-113">
          <mxGeometry x="73.99666666666667" y="39.99777777777774" width="70" height="47" as="geometry" />
        </mxCell>
        <mxCell id="-LpXlav8uHPvm0gaR7sH-134" value="" style="group" vertex="1" connectable="0" parent="1">
          <mxGeometry x="310.00333333333333" y="640.0022222222223" width="147.3517777777778" height="89.70777777777775" as="geometry" />
        </mxCell>
        <mxCell id="-LpXlav8uHPvm0gaR7sH-135" value="" style="shape=folder;fontStyle=1;spacingTop=10;tabWidth=90;tabHeight=29;tabPosition=left;html=1;" vertex="1" parent="-LpXlav8uHPvm0gaR7sH-134">
          <mxGeometry y="0.9977777777777703" width="147.3517777777778" height="88.71" as="geometry" />
        </mxCell>
        <mxCell id="-LpXlav8uHPvm0gaR7sH-136" value="Raw materials" style="text;align=center;fontStyle=1;verticalAlign=middle;spacingLeft=3;spacingRight=3;strokeColor=none;rotatable=0;points=[[0,0.5],[1,0.5]];portConstraint=eastwest;" vertex="1" parent="-LpXlav8uHPvm0gaR7sH-134">
          <mxGeometry x="21.733333333333338" width="46.0628888888889" height="28.88888888888889" as="geometry" />
        </mxCell>
        <mxCell id="-LpXlav8uHPvm0gaR7sH-137" value="Manage raw materials" style="ellipse;whiteSpace=wrap;html=1;" vertex="1" parent="-LpXlav8uHPvm0gaR7sH-134">
          <mxGeometry x="34.66666666666663" y="39.99777777777774" width="70" height="47" as="geometry" />
        </mxCell>
        <mxCell id="-LpXlav8uHPvm0gaR7sH-206" style="edgeStyle=orthogonalEdgeStyle;rounded=0;orthogonalLoop=1;jettySize=auto;html=1;entryX=-0.001;entryY=0.177;entryDx=0;entryDy=0;entryPerimeter=0;endArrow=none;endFill=0;" edge="1" parent="1" source="-LpXlav8uHPvm0gaR7sH-192" target="-LpXlav8uHPvm0gaR7sH-54">
          <mxGeometry relative="1" as="geometry" />
        </mxCell>
        <mxCell id="-LpXlav8uHPvm0gaR7sH-210" style="edgeStyle=orthogonalEdgeStyle;rounded=0;orthogonalLoop=1;jettySize=auto;html=1;endArrow=classic;endFill=1;" edge="1" parent="1" source="-LpXlav8uHPvm0gaR7sH-192">
          <mxGeometry relative="1" as="geometry">
            <mxPoint x="91" y="1000" as="targetPoint" />
          </mxGeometry>
        </mxCell>
        <mxCell id="-LpXlav8uHPvm0gaR7sH-192" value="Visitor" style="shape=umlActor;verticalLabelPosition=bottom;verticalAlign=top;html=1;" vertex="1" parent="1">
          <mxGeometry x="76" y="1316" width="30" height="60" as="geometry" />
        </mxCell>
        <mxCell id="-LpXlav8uHPvm0gaR7sH-203" style="edgeStyle=orthogonalEdgeStyle;rounded=0;orthogonalLoop=1;jettySize=auto;html=1;endArrow=none;endFill=0;" edge="1" parent="1" source="-LpXlav8uHPvm0gaR7sH-193" target="-LpXlav8uHPvm0gaR7sH-1">
          <mxGeometry relative="1" as="geometry" />
        </mxCell>
        <mxCell id="-LpXlav8uHPvm0gaR7sH-207" style="edgeStyle=orthogonalEdgeStyle;rounded=0;orthogonalLoop=1;jettySize=auto;html=1;endArrow=classic;endFill=1;" edge="1" parent="1" source="-LpXlav8uHPvm0gaR7sH-193">
          <mxGeometry relative="1" as="geometry">
            <mxPoint x="94" y="510" as="targetPoint" />
            <Array as="points">
              <mxPoint x="94" y="510" />
            </Array>
          </mxGeometry>
        </mxCell>
        <mxCell id="-LpXlav8uHPvm0gaR7sH-193" value="Intern" style="shape=umlActor;verticalLabelPosition=bottom;verticalAlign=top;html=1;" vertex="1" parent="1">
          <mxGeometry x="79" y="907" width="30" height="60" as="geometry" />
        </mxCell>
        <mxCell id="-LpXlav8uHPvm0gaR7sH-202" style="edgeStyle=orthogonalEdgeStyle;rounded=0;orthogonalLoop=1;jettySize=auto;html=1;entryX=0.001;entryY=0.379;entryDx=0;entryDy=0;entryPerimeter=0;endArrow=none;endFill=0;" edge="1" parent="1" source="-LpXlav8uHPvm0gaR7sH-194" target="-LpXlav8uHPvm0gaR7sH-6">
          <mxGeometry relative="1" as="geometry" />
        </mxCell>
        <mxCell id="-LpXlav8uHPvm0gaR7sH-194" value="Admin" style="shape=umlActor;verticalLabelPosition=bottom;verticalAlign=top;html=1;" vertex="1" parent="1">
          <mxGeometry x="80" y="420" width="30" height="60" as="geometry" />
        </mxCell>
        <mxCell id="-LpXlav8uHPvm0gaR7sH-198" style="edgeStyle=orthogonalEdgeStyle;rounded=0;orthogonalLoop=1;jettySize=auto;html=1;entryX=0;entryY=0;entryDx=125.11;entryDy=58.855;entryPerimeter=0;endArrow=none;endFill=0;" edge="1" parent="1" source="-LpXlav8uHPvm0gaR7sH-195" target="-LpXlav8uHPvm0gaR7sH-44">
          <mxGeometry relative="1" as="geometry" />
        </mxCell>
        <mxCell id="-LpXlav8uHPvm0gaR7sH-195" value="&amp;lt;System&amp;gt; Stripe" style="shape=umlActor;verticalLabelPosition=bottom;verticalAlign=top;html=1;" vertex="1" parent="1">
          <mxGeometry x="1030" y="180" width="30" height="60" as="geometry" />
        </mxCell>
        <mxCell id="-LpXlav8uHPvm0gaR7sH-197" style="edgeStyle=orthogonalEdgeStyle;rounded=0;orthogonalLoop=1;jettySize=auto;html=1;entryX=0.01;entryY=0.582;entryDx=0;entryDy=0;entryPerimeter=0;endArrow=none;endFill=0;" edge="1" parent="1" source="-LpXlav8uHPvm0gaR7sH-196" target="-LpXlav8uHPvm0gaR7sH-29">
          <mxGeometry relative="1" as="geometry" />
        </mxCell>
        <mxCell id="-LpXlav8uHPvm0gaR7sH-196" value="&amp;lt;System&amp;gt; MailJet" style="shape=umlActor;verticalLabelPosition=bottom;verticalAlign=top;html=1;" vertex="1" parent="1">
          <mxGeometry x="110" y="175.62" width="30" height="60" as="geometry" />
        </mxCell>
        <mxCell id="-LpXlav8uHPvm0gaR7sH-213" style="edgeStyle=orthogonalEdgeStyle;rounded=0;orthogonalLoop=1;jettySize=auto;html=1;exitX=0.5;exitY=0;exitDx=0;exitDy=0;endArrow=classic;endFill=1;dashed=1;startArrow=none;entryX=0.003;entryY=0.753;entryDx=0;entryDy=0;entryPerimeter=0;" edge="1" parent="1" source="-LpXlav8uHPvm0gaR7sH-214" target="-LpXlav8uHPvm0gaR7sH-29">
          <mxGeometry relative="1" as="geometry">
            <mxPoint x="430" y="270" as="targetPoint" />
            <Array as="points">
              <mxPoint x="417" y="270" />
              <mxPoint x="420" y="270" />
              <mxPoint x="420" y="248" />
            </Array>
          </mxGeometry>
        </mxCell>
        <mxCell id="-LpXlav8uHPvm0gaR7sH-214" value="Include" style="text;html=1;align=center;verticalAlign=middle;resizable=0;points=[];autosize=1;strokeColor=none;fillColor=none;" vertex="1" parent="1">
          <mxGeometry x="391.69" y="410" width="50" height="20" as="geometry" />
        </mxCell>
        <mxCell id="-LpXlav8uHPvm0gaR7sH-215" value="" style="edgeStyle=orthogonalEdgeStyle;rounded=0;orthogonalLoop=1;jettySize=auto;html=1;exitX=0.5;exitY=0;exitDx=0;exitDy=0;endArrow=none;endFill=1;dashed=1;entryX=0.46;entryY=1.163;entryDx=0;entryDy=0;entryPerimeter=0;" edge="1" parent="1" source="-LpXlav8uHPvm0gaR7sH-138" target="-LpXlav8uHPvm0gaR7sH-214">
          <mxGeometry relative="1" as="geometry">
            <mxPoint x="416.6899999999998" y="570" as="sourcePoint" />
            <mxPoint x="420" y="238.79000000000008" as="targetPoint" />
            <Array as="points" />
          </mxGeometry>
        </mxCell>
        <mxCell id="-LpXlav8uHPvm0gaR7sH-216" style="edgeStyle=orthogonalEdgeStyle;rounded=0;orthogonalLoop=1;jettySize=auto;html=1;exitX=0.5;exitY=0;exitDx=0;exitDy=0;dashed=1;endArrow=classic;endFill=1;startArrow=none;entryX=0;entryY=0;entryDx=125.11;entryDy=58.855;entryPerimeter=0;" edge="1" parent="1" source="-LpXlav8uHPvm0gaR7sH-217" target="-LpXlav8uHPvm0gaR7sH-29">
          <mxGeometry relative="1" as="geometry">
            <mxPoint x="530" y="240" as="targetPoint" />
          </mxGeometry>
        </mxCell>
        <mxCell id="-LpXlav8uHPvm0gaR7sH-217" value="Include" style="text;html=1;align=center;verticalAlign=middle;resizable=0;points=[];autosize=1;strokeColor=none;fillColor=none;" vertex="1" parent="1">
          <mxGeometry x="610" y="228.79" width="50" height="20" as="geometry" />
        </mxCell>
        <mxCell id="-LpXlav8uHPvm0gaR7sH-218" value="" style="edgeStyle=orthogonalEdgeStyle;rounded=0;orthogonalLoop=1;jettySize=auto;html=1;exitX=0.5;exitY=0;exitDx=0;exitDy=0;entryX=1;entryY=0.5;entryDx=0;entryDy=0;dashed=1;endArrow=none;endFill=1;" edge="1" parent="1" source="-LpXlav8uHPvm0gaR7sH-79" target="-LpXlav8uHPvm0gaR7sH-217">
          <mxGeometry relative="1" as="geometry">
            <mxPoint x="744.9099999999999" y="563" as="sourcePoint" />
            <mxPoint x="490" y="238.79000000000008" as="targetPoint" />
            <Array as="points">
              <mxPoint x="700" y="563" />
              <mxPoint x="700" y="239" />
            </Array>
          </mxGeometry>
        </mxCell>
        <mxCell id="-LpXlav8uHPvm0gaR7sH-220" style="edgeStyle=orthogonalEdgeStyle;rounded=0;orthogonalLoop=1;jettySize=auto;html=1;exitX=0.608;exitY=1.13;exitDx=0;exitDy=0;exitPerimeter=0;entryX=0.996;entryY=0.687;entryDx=0;entryDy=0;entryPerimeter=0;dashed=1;endArrow=classic;endFill=1;startArrow=none;" edge="1" parent="1" source="-LpXlav8uHPvm0gaR7sH-221" target="-LpXlav8uHPvm0gaR7sH-127">
          <mxGeometry relative="1" as="geometry">
            <Array as="points">
              <mxPoint x="1020" y="402" />
              <mxPoint x="1020" y="313" />
              <mxPoint x="958" y="313" />
              <mxPoint x="958" y="545" />
            </Array>
          </mxGeometry>
        </mxCell>
        <mxCell id="-LpXlav8uHPvm0gaR7sH-221" value="Include" style="text;html=1;align=center;verticalAlign=middle;resizable=0;points=[];autosize=1;strokeColor=none;fillColor=none;" vertex="1" parent="1">
          <mxGeometry x="1040" y="379.71" width="50" height="20" as="geometry" />
        </mxCell>
        <mxCell id="-LpXlav8uHPvm0gaR7sH-223" value="" style="edgeStyle=orthogonalEdgeStyle;rounded=0;orthogonalLoop=1;jettySize=auto;html=1;exitX=0.964;exitY=0.678;exitDx=0;exitDy=0;exitPerimeter=0;entryX=0.996;entryY=0.687;entryDx=0;entryDy=0;entryPerimeter=0;dashed=1;endArrow=none;endFill=1;" edge="1" parent="1" source="-LpXlav8uHPvm0gaR7sH-47" target="-LpXlav8uHPvm0gaR7sH-221">
          <mxGeometry relative="1" as="geometry">
            <mxPoint x="835.1099999999999" y="250.40250000000003" as="sourcePoint" />
            <mxPoint x="937.1999999999998" y="544.598823599238" as="targetPoint" />
            <Array as="points">
              <mxPoint x="808" y="170" />
              <mxPoint x="1110" y="170" />
              <mxPoint x="1110" y="394" />
            </Array>
          </mxGeometry>
        </mxCell>
        <mxCell id="-LpXlav8uHPvm0gaR7sH-224" style="edgeStyle=orthogonalEdgeStyle;rounded=0;orthogonalLoop=1;jettySize=auto;html=1;exitX=0.5;exitY=0;exitDx=0;exitDy=0;entryX=0.591;entryY=1.015;entryDx=0;entryDy=0;entryPerimeter=0;dashed=1;endArrow=classic;endFill=1;startArrow=none;" edge="1" parent="1" source="-LpXlav8uHPvm0gaR7sH-225" target="-LpXlav8uHPvm0gaR7sH-29">
          <mxGeometry relative="1" as="geometry" />
        </mxCell>
        <mxCell id="-LpXlav8uHPvm0gaR7sH-225" value="Include" style="text;html=1;align=center;verticalAlign=middle;resizable=0;points=[];autosize=1;strokeColor=none;fillColor=none;" vertex="1" parent="1">
          <mxGeometry x="585.04" y="301" width="50" height="20" as="geometry" />
        </mxCell>
        <mxCell id="-LpXlav8uHPvm0gaR7sH-226" value="" style="edgeStyle=orthogonalEdgeStyle;rounded=0;orthogonalLoop=1;jettySize=auto;html=1;exitX=0.5;exitY=0;exitDx=0;exitDy=0;entryX=0.591;entryY=1.015;entryDx=0;entryDy=0;entryPerimeter=0;dashed=1;endArrow=none;endFill=1;" edge="1" parent="1" source="-LpXlav8uHPvm0gaR7sH-117" target="-LpXlav8uHPvm0gaR7sH-225">
          <mxGeometry relative="1" as="geometry">
            <mxPoint x="749" y="350" as="sourcePoint" />
            <mxPoint x="473.94001000000003" y="271.04065" as="targetPoint" />
          </mxGeometry>
        </mxCell>
        <mxCell id="-LpXlav8uHPvm0gaR7sH-230" style="edgeStyle=orthogonalEdgeStyle;rounded=0;orthogonalLoop=1;jettySize=auto;html=1;exitX=1;exitY=0.5;exitDx=0;exitDy=0;entryX=0;entryY=0;entryDx=125.11;entryDy=73.7825;entryPerimeter=0;dashed=1;endArrow=classic;endFill=1;startArrow=none;" edge="1" parent="1" source="-LpXlav8uHPvm0gaR7sH-232" target="-LpXlav8uHPvm0gaR7sH-29">
          <mxGeometry relative="1" as="geometry" />
        </mxCell>
        <mxCell id="-LpXlav8uHPvm0gaR7sH-232" value="Include" style="text;html=1;align=center;verticalAlign=middle;resizable=0;points=[];autosize=1;strokeColor=none;fillColor=none;" vertex="1" parent="1">
          <mxGeometry x="566.72" y="341.08" width="50" height="20" as="geometry" />
        </mxCell>
        <mxCell id="-LpXlav8uHPvm0gaR7sH-233" value="" style="edgeStyle=orthogonalEdgeStyle;rounded=0;orthogonalLoop=1;jettySize=auto;html=1;exitX=1;exitY=0.5;exitDx=0;exitDy=0;entryX=0.578;entryY=1.136;entryDx=0;entryDy=0;entryPerimeter=0;dashed=1;endArrow=none;endFill=1;" edge="1" parent="1" source="-LpXlav8uHPvm0gaR7sH-229" target="-LpXlav8uHPvm0gaR7sH-232">
          <mxGeometry relative="1" as="geometry">
            <mxPoint x="566.7199999999998" y="403.5" as="sourcePoint" />
            <mxPoint x="525.1099999999999" y="254.78250000000003" as="targetPoint" />
          </mxGeometry>
        </mxCell>
        <mxCell id="-LpXlav8uHPvm0gaR7sH-234" style="edgeStyle=orthogonalEdgeStyle;rounded=0;orthogonalLoop=1;jettySize=auto;html=1;exitX=0;exitY=0.5;exitDx=0;exitDy=0;entryX=0;entryY=0;entryDx=0;entryDy=43.927499999999995;entryPerimeter=0;dashed=1;endArrow=classic;endFill=1;startArrow=none;" edge="1" parent="1" source="-LpXlav8uHPvm0gaR7sH-235" target="-LpXlav8uHPvm0gaR7sH-29">
          <mxGeometry relative="1" as="geometry">
            <Array as="points">
              <mxPoint x="240" y="225" />
            </Array>
          </mxGeometry>
        </mxCell>
        <mxCell id="-LpXlav8uHPvm0gaR7sH-235" value="Include" style="text;html=1;align=center;verticalAlign=middle;resizable=0;points=[];autosize=1;strokeColor=none;fillColor=none;" vertex="1" parent="1">
          <mxGeometry x="213" y="655.29" width="50" height="20" as="geometry" />
        </mxCell>
        <mxCell id="-LpXlav8uHPvm0gaR7sH-236" value="" style="edgeStyle=orthogonalEdgeStyle;rounded=0;orthogonalLoop=1;jettySize=auto;html=1;exitX=0;exitY=0.5;exitDx=0;exitDy=0;entryX=0.324;entryY=1.186;entryDx=0;entryDy=0;entryPerimeter=0;dashed=1;endArrow=none;endFill=1;" edge="1" parent="1" source="-LpXlav8uHPvm0gaR7sH-181" target="-LpXlav8uHPvm0gaR7sH-235">
          <mxGeometry relative="1" as="geometry">
            <mxPoint x="307.41888888888593" y="1162.4372222222223" as="sourcePoint" />
            <mxPoint x="400" y="224.9275" as="targetPoint" />
            <Array as="points">
              <mxPoint x="240" y="1162" />
              <mxPoint x="240" y="679" />
            </Array>
          </mxGeometry>
        </mxCell>
        <mxCell id="-LpXlav8uHPvm0gaR7sH-240" style="edgeStyle=orthogonalEdgeStyle;rounded=0;orthogonalLoop=1;jettySize=auto;html=1;exitX=0.5;exitY=1;exitDx=0;exitDy=0;entryX=0.75;entryY=1;entryDx=0;entryDy=0;entryPerimeter=0;dashed=1;endArrow=classic;endFill=1;startArrow=none;" edge="1" parent="1" source="-LpXlav8uHPvm0gaR7sH-241" target="-LpXlav8uHPvm0gaR7sH-29">
          <mxGeometry relative="1" as="geometry" />
        </mxCell>
        <mxCell id="-LpXlav8uHPvm0gaR7sH-241" value="Include" style="text;html=1;align=center;verticalAlign=middle;resizable=0;points=[];autosize=1;strokeColor=none;fillColor=none;" vertex="1" parent="1">
          <mxGeometry x="524.67" y="1779.22" width="50" height="20" as="geometry" />
        </mxCell>
        <mxCell id="-LpXlav8uHPvm0gaR7sH-242" value="" style="edgeStyle=orthogonalEdgeStyle;rounded=0;orthogonalLoop=1;jettySize=auto;html=1;exitX=0.5;exitY=1;exitDx=0;exitDy=0;entryX=0.75;entryY=1;entryDx=0;entryDy=0;entryPerimeter=0;dashed=1;endArrow=none;endFill=1;" edge="1" parent="1" source="-LpXlav8uHPvm0gaR7sH-161" target="-LpXlav8uHPvm0gaR7sH-241">
          <mxGeometry relative="1" as="geometry">
            <mxPoint x="572.6833333333334" y="1769.2224474990453" as="sourcePoint" />
            <mxPoint x="493.8325" y="269.71000000000004" as="targetPoint" />
          </mxGeometry>
        </mxCell>
        <mxCell id="-LpXlav8uHPvm0gaR7sH-245" style="edgeStyle=orthogonalEdgeStyle;rounded=0;orthogonalLoop=1;jettySize=auto;html=1;exitX=1;exitY=0.5;exitDx=0;exitDy=0;entryX=0.829;entryY=1.004;entryDx=0;entryDy=0;entryPerimeter=0;dashed=1;endArrow=classic;endFill=1;startArrow=none;" edge="1" parent="1" source="-LpXlav8uHPvm0gaR7sH-246" target="-LpXlav8uHPvm0gaR7sH-93">
          <mxGeometry relative="1" as="geometry" />
        </mxCell>
        <mxCell id="-LpXlav8uHPvm0gaR7sH-246" value="Include" style="text;html=1;align=center;verticalAlign=middle;resizable=0;points=[];autosize=1;strokeColor=none;fillColor=none;" vertex="1" parent="1">
          <mxGeometry x="810" y="1074" width="50" height="20" as="geometry" />
        </mxCell>
        <mxCell id="-LpXlav8uHPvm0gaR7sH-247" value="" style="edgeStyle=orthogonalEdgeStyle;rounded=0;orthogonalLoop=1;jettySize=auto;html=1;exitX=1;exitY=0.5;exitDx=0;exitDy=0;entryX=0.829;entryY=1.004;entryDx=0;entryDy=0;entryPerimeter=0;dashed=1;endArrow=none;endFill=1;" edge="1" parent="1" source="-LpXlav8uHPvm0gaR7sH-243" target="-LpXlav8uHPvm0gaR7sH-246">
          <mxGeometry relative="1" as="geometry">
            <mxPoint x="809.9999999999941" y="252.73000000000002" as="sourcePoint" />
            <mxPoint x="750.8399999999999" y="1757.4006570717265" as="targetPoint" />
          </mxGeometry>
        </mxCell>
        <mxCell id="-LpXlav8uHPvm0gaR7sH-251" value="System" style="text;html=1;align=center;verticalAlign=middle;resizable=0;points=[];autosize=1;strokeColor=none;fillColor=none;" vertex="1" parent="1">
          <mxGeometry x="930" y="100" width="60" height="20" as="geometry" />
        </mxCell>
      </root>
    </mxGraphModel>
  </diagram>
</mxfile>
